<?xml version="1.0" standalone="no"?>
<!DOCTYPE svg PUBLIC "-//W3C//DTD SVG 20010904//EN"
 "http://www.w3.org/TR/2001/REC-SVG-20010904/DTD/svg10.dtd">
<svg version="1.0" xmlns="http://www.w3.org/2000/svg"
 width="5041.000000pt" height="3429.000000pt" viewBox="0 0 5041.000000 3429.000000"
 preserveAspectRatio="xMidYMid meet">

<g transform="translate(0.000000,3429.000000) scale(0.100000,-0.100000)"
fill="#000000" stroke="none">
<path d="M0 34220 c0 -33 2 -60 4 -60 2 0 22 27 45 60 l42 60 -45 0 -46 0 0
-60z"/>
<path d="M3695 32372 c-6 -4 -28 -34 -51 -67 -34 -51 -360 -516 -485 -692 -71
-101 -360 -515 -418 -598 -30 -44 -60 -85 -66 -92 -5 -7 -35 -48 -65 -93 -30
-44 -98 -142 -151 -218 l-97 -137 2464 -3 2464 -2 -45 -66 c-25 -36 -45 -68
-45 -71 0 -3 -18 -27 -40 -53 -22 -26 -40 -53 -40 -59 0 -6 -3 -11 -8 -11 -4
0 -18 -18 -32 -40 -14 -22 -28 -40 -31 -40 -4 0 -9 -8 -13 -17 -7 -21 -25 -50
-48 -77 -10 -11 -21 -29 -24 -40 -4 -12 -9 -23 -13 -26 -3 -3 -25 -31 -49 -62
-152 -207 -282 -394 -282 -408 0 -5 -5 -10 -11 -10 -6 0 -9 -10 -7 -22 3 -20
-22 -59 -38 -57 -3 0 -19 -18 -35 -40 -16 -23 -34 -41 -39 -41 -6 0 -10 -7
-10 -16 0 -17 -125 -210 -144 -222 -6 -4 -17 -18 -24 -32 -33 -64 -45 -82 -58
-87 -21 -8 -17 -23 5 -23 11 0 23 -5 27 -12 5 -8 -3 -9 -30 -5 -36 6 -37 4
-56 -36 -10 -23 -22 -55 -26 -72 -5 -25 -7 -27 -13 -11 -7 17 -9 16 -24 -7 -9
-15 -17 -31 -17 -36 0 -5 -8 -16 -18 -23 -11 -7 -21 -17 -23 -23 -11 -28 -72
-115 -80 -115 -5 0 -9 -6 -9 -13 0 -8 -11 -20 -25 -27 -14 -7 -25 -19 -25 -27
0 -7 -4 -13 -10 -13 -5 0 -10 -7 -10 -15 0 -8 -4 -15 -10 -15 -5 0 -10 -6 -10
-14 0 -8 -3 -16 -7 -18 -14 -6 -53 -67 -53 -82 0 -7 -6 -16 -14 -19 -7 -3 -35
-38 -61 -79 -27 -40 -55 -78 -62 -83 -8 -6 -19 -20 -26 -31 -25 -44 -144 -220
-158 -234 -25 -27 -79 -108 -79 -119 0 -6 -4 -11 -8 -11 -4 0 -16 -13 -25 -30
-41 -70 -66 -72 -87 -9 -7 21 -17 39 -21 39 -4 0 -11 9 -14 20 -3 11 -13 20
-20 20 -18 0 -39 37 -25 42 6 2 -1 15 -15 30 -14 15 -25 32 -25 38 0 5 -6 10
-13 10 -8 0 -22 18 -32 40 -10 22 -21 40 -25 40 -4 0 -10 8 -14 18 -7 21 -27
53 -42 67 -6 5 -18 25 -25 43 -8 17 -18 32 -22 32 -14 0 -46 44 -47 63 0 9 -4
17 -10 17 -5 0 -10 8 -10 19 0 10 -9 21 -20 24 -13 3 -22 17 -26 36 -4 17 -13
36 -20 42 -11 9 -14 6 -14 -15 0 -20 -5 -26 -21 -26 -18 0 -20 5 -18 53 2 30
-3 63 -11 77 -21 40 -62 71 -87 67 -13 -2 -23 0 -23 4 0 5 5 9 10 9 21 0 9 37
-22 71 -18 19 -42 52 -53 73 -11 21 -32 52 -47 68 -15 17 -38 47 -50 69 -12
21 -25 39 -29 39 -5 0 -16 16 -25 35 -9 19 -20 32 -25 29 -5 -3 -12 8 -15 25
-3 16 -19 42 -35 57 -16 15 -29 33 -29 39 0 6 -8 20 -17 31 -10 10 -24 31 -32
47 -8 15 -18 27 -23 27 -4 0 -8 7 -8 15 0 8 -4 15 -9 15 -5 0 -24 25 -41 55
-17 30 -35 55 -39 55 -4 0 -17 19 -29 43 -12 23 -34 55 -48 71 -24 27 -26 28
-39 10 -8 -11 -15 -23 -15 -27 0 -4 -9 -18 -21 -30 -11 -12 -29 -39 -40 -59
-11 -21 -24 -38 -29 -38 -6 0 -10 -7 -10 -15 0 -8 -9 -20 -20 -27 -11 -7 -20
-18 -20 -24 0 -5 -8 -19 -17 -30 -36 -40 -82 -114 -72 -114 6 0 -3 -13 -19
-30 -17 -16 -56 -67 -87 -112 -32 -46 -63 -87 -69 -93 -6 -5 -17 -21 -24 -35
-24 -49 -54 -95 -67 -102 -7 -5 -25 -29 -40 -55 -15 -25 -38 -58 -51 -72 -48
-55 -94 -116 -94 -127 0 -6 -9 -19 -20 -29 -11 -10 -20 -22 -20 -27 0 -4 -13
-22 -30 -40 -16 -17 -30 -35 -30 -41 0 -5 -8 -17 -17 -26 -19 -17 -38 -45 -50
-71 -4 -8 -9 -17 -12 -20 -8 -7 -27 -38 -46 -76 -9 -17 -33 -50 -55 -74 -22
-24 -40 -50 -40 -57 0 -6 -8 -18 -17 -25 -10 -7 -22 -21 -28 -30 -5 -9 -25
-37 -42 -62 -18 -26 -33 -50 -33 -53 0 -3 -10 -18 -22 -33 -51 -63 -58 -75
-58 -96 0 -13 5 -26 10 -29 15 -9 12 -25 -5 -25 -8 0 -15 7 -15 15 0 8 -4 15
-10 15 -5 0 -10 -4 -10 -9 0 -6 -11 -22 -25 -37 -14 -15 -25 -33 -25 -40 0 -8
-4 -14 -8 -14 -19 0 -82 -101 -83 -132 -1 -18 -4 -44 -8 -58 -7 -25 -7 -25
-13 -2 -3 12 -2 22 3 22 5 0 9 7 9 15 0 12 -4 11 -20 -5 -16 -16 -20 -33 -20
-95 0 -67 -2 -75 -19 -75 -10 0 -22 7 -25 16 -9 24 4 64 22 64 12 0 13 3 4 12
-6 6 -13 10 -14 7 -2 -2 -19 -26 -37 -53 l-34 -49 27 7 c18 4 25 3 21 -4 -3
-5 -19 -10 -34 -10 -23 0 -32 -7 -45 -35 -9 -19 -21 -35 -26 -35 -6 0 -10 -11
-10 -24 0 -15 -7 -26 -20 -29 -26 -7 -26 -27 1 -27 12 0 23 8 26 20 3 11 9 20
14 20 5 0 9 9 9 20 0 11 5 20 10 20 6 0 10 -17 10 -39 0 -37 -1 -39 -39 -45
-22 -3 -47 -3 -55 0 -11 4 -16 0 -16 -11 0 -10 -7 -23 -16 -30 -10 -7 -19 -32
-22 -63 l-5 -52 37 0 c35 0 36 1 36 40 0 29 -4 40 -15 40 -8 0 -15 6 -15 14 0
7 7 19 15 26 13 11 15 8 15 -14 0 -24 4 -26 40 -26 l40 0 0 40 0 40 80 0 80 0
0 40 0 40 40 0 40 0 0 40 0 40 80 0 80 0 0 40 0 40 40 0 40 0 0 80 0 80 -40 0
c-22 0 -40 5 -40 10 0 15 70 12 86 -4 8 -8 14 -31 14 -50 0 -33 2 -36 30 -36
28 0 30 -2 30 -40 0 -36 3 -40 25 -40 23 0 25 -4 25 -40 0 -36 3 -40 25 -40
18 0 25 -5 25 -20 0 -11 -4 -20 -10 -20 -5 0 -10 -9 -10 -20 0 -11 5 -20 10
-20 6 0 10 7 10 15 0 8 5 15 10 15 6 0 13 -7 16 -15 4 -8 12 -15 20 -15 11 0
14 -18 14 -80 l0 -80 40 0 c28 0 40 -4 40 -15 0 -23 49 -65 75 -65 22 0 25 -4
25 -40 0 -38 2 -40 30 -40 29 0 30 -1 30 -49 0 -35 4 -51 16 -55 8 -3 12 -10
9 -16 -3 -5 1 -10 9 -10 10 0 13 -6 10 -15 -6 -13 -85 -15 -669 -13 -527 2
-661 0 -658 -9 4 -10 -109 -13 -548 -12 -305 0 -549 3 -543 5 8 3 1 17 -17 37
-16 17 -29 35 -29 39 0 11 -142 220 -172 252 -15 17 -33 41 -40 55 -7 15 -15
28 -18 31 -19 19 -70 91 -70 98 0 9 -46 73 -74 102 -19 21 -126 180 -126 189
0 3 -9 13 -20 21 -11 8 -20 18 -20 22 0 11 -70 117 -98 146 -27 31 -28 52 -2
85 11 14 20 32 20 41 0 9 4 16 9 16 5 0 12 8 15 18 4 9 20 33 37 52 17 19 35
44 40 55 20 45 46 80 59 80 7 0 18 14 23 30 6 17 14 33 20 36 5 4 5 15 -2 28
-10 17 -9 21 3 21 8 0 18 -5 21 -10 10 -16 32 12 31 39 -1 17 8 28 31 40 18 9
33 21 33 28 0 23 23 63 37 63 7 0 13 8 13 18 0 9 10 28 23 42 12 14 33 41 47
60 13 19 27 37 30 40 3 3 14 22 25 43 11 20 23 37 27 37 5 0 8 7 8 15 0 13
-59 15 -474 15 -444 0 -475 -1 -479 -17 -4 -17 -5 -17 -6 0 -1 10 -9 17 -20
17 -11 0 -22 6 -24 13 -3 6 -6 -1702 -6 -3797 -1 -2095 1 -3807 4 -3805 2 3 5
426 6 942 l2 937 2205 0 c1213 0 2208 2 2210 5 3 3 -553 5 -1236 5 -821 0
-1242 3 -1242 10 0 6 8 10 18 11 10 0 12 3 5 6 -18 7 -16 23 3 23 8 0 12 5 9
10 -3 6 1 10 9 10 9 0 16 6 16 14 0 8 13 27 29 43 23 24 29 41 35 96 7 57 10
67 27 67 10 0 19 6 19 13 0 6 8 3 16 -8 16 -20 16 -20 27 -1 7 11 21 28 31 39
15 16 17 24 7 38 -10 17 -8 19 14 19 14 0 25 5 25 10 0 6 11 23 25 38 16 17
21 29 13 33 -17 11 -2 38 27 49 14 5 25 13 25 17 0 5 16 25 35 45 19 20 35 41
35 46 0 6 14 25 31 43 17 18 26 35 20 37 -18 6 -13 36 8 49 16 10 20 9 24 -5
3 -10 5 -6 6 11 1 20 6 27 21 27 13 0 20 7 20 19 0 10 7 24 15 31 8 7 15 21
15 31 0 11 3 19 8 19 4 0 16 14 27 30 11 16 26 30 33 30 6 0 12 8 12 19 0 10
10 29 22 42 42 45 100 126 115 159 4 8 9 17 12 20 22 19 59 79 50 82 -18 6 1
36 28 43 21 5 24 10 18 33 -4 15 -13 34 -21 43 -8 8 -14 21 -14 27 0 7 -6 12
-12 12 -13 0 -38 44 -38 67 0 7 -5 13 -11 13 -16 0 -48 42 -49 63 0 9 -4 17
-10 17 -5 0 -10 6 -10 14 0 8 -6 16 -14 19 -8 3 -22 22 -32 42 -9 20 -28 43
-40 52 -13 8 -24 23 -24 32 0 9 -16 33 -35 54 -22 23 -30 39 -23 43 7 4 -1 13
-18 22 l-29 16 35 7 c19 5 195 8 390 8 195 0 912 0 1592 1 l1238 1 25 25 c14
14 25 29 25 34 0 5 10 19 23 32 12 13 66 89 121 169 54 81 109 158 122 172 13
15 24 33 24 42 0 8 3 15 8 15 4 0 18 18 32 40 14 22 27 40 30 40 3 0 16 18 30
40 14 22 28 40 32 40 5 0 8 6 8 13 0 7 8 22 18 33 32 36 62 83 62 96 0 8 9 20
20 28 11 8 20 18 20 22 0 10 101 141 112 146 5 2 8 8 8 14 0 6 12 27 27 46 33
43 93 132 93 138 0 2 -21 34 -47 71 -25 38 -69 102 -98 143 -28 41 -70 101
-93 132 -23 31 -42 60 -42 62 0 3 -7 14 -15 23 -21 26 -175 245 -186 266 -9
16 76 17 1723 19 l1733 3 -1245 5 c-835 3 -1240 8 -1230 15 20 14 80 91 80
104 0 6 5 11 10 11 6 0 10 5 10 11 0 6 10 23 23 38 28 34 48 62 95 132 59 89
125 184 132 189 3 3 17 21 30 40 13 19 27 37 30 40 3 3 14 22 25 43 11 20 23
37 27 37 3 0 9 8 12 18 4 9 22 35 41 57 19 22 35 44 35 48 0 5 20 35 45 67 25
32 45 63 45 68 0 6 4 12 8 14 5 2 23 26 42 53 19 28 39 56 46 62 7 7 23 29 35
50 13 21 60 88 104 150 44 61 86 119 93 130 7 10 44 63 81 118 38 55 76 107
84 116 8 9 35 47 60 85 25 38 66 96 91 129 25 33 53 76 63 95 9 19 28 46 40
60 13 14 23 28 23 31 0 3 16 26 35 50 19 24 35 47 35 51 0 7 15 27 45 62 6 6
33 45 60 86 28 41 52 77 56 80 3 3 15 22 28 43 12 20 27 37 32 37 5 0 9 5 9
12 0 6 11 26 25 44 14 18 25 35 25 38 0 5 12 21 45 60 6 7 15 19 20 28 16 24
45 67 102 147 50 70 52 75 38 97 -8 13 -11 25 -6 28 5 3 11 -4 14 -15 6 -23
27 -17 27 7 0 8 5 14 11 14 6 0 9 7 5 15 -3 8 0 14 7 12 7 -1 11 6 9 16 -2 9
2 17 9 17 13 0 59 46 59 60 0 5 10 21 23 37 12 15 27 35 32 44 41 66 89 135
96 137 5 2 9 18 10 35 0 26 2 28 8 12 7 -18 9 -17 24 11 9 17 43 67 76 111 45
61 58 87 54 105 -4 18 -3 20 6 8 10 -13 12 -13 21 0 6 8 13 27 17 43 3 15 11
27 18 27 12 0 46 46 74 99 8 15 9 21 2 17 -6 -4 -11 -2 -11 3 0 6 12 11 26 11
23 0 25 3 20 28 -5 20 -4 23 4 12 9 -13 11 -13 19 0 5 8 19 26 31 40 l22 25
-2449 5 c-1346 3 -2222 6 -1945 8 l503 2 -20 29 c-12 16 -21 33 -21 38 0 4
-10 18 -23 29 -12 12 -31 39 -42 60 -11 22 -25 46 -32 54 -33 41 -75 98 -94
128 -12 18 -27 31 -33 29 -7 -3 -12 10 -13 31 -1 20 -8 39 -16 43 -7 5 -27 27
-43 51 -16 24 -31 45 -34 48 -20 20 -70 91 -70 99 0 6 -5 11 -11 11 -5 0 -17
16 -25 36 -9 21 -20 34 -28 31 -18 -7 -8 51 13 73 27 29 45 55 65 93 11 21 29
48 41 60 40 41 87 121 93 156 4 29 7 31 13 16 6 -19 8 -18 18 5 20 43 35 65
64 93 30 30 33 47 15 65 -8 8 -9 12 -1 12 6 0 13 -6 16 -12 4 -10 7 -10 17 -1
11 10 11 15 -1 29 -12 15 -12 16 9 10 16 -6 24 -3 29 11 4 10 15 27 26 38 15
16 17 29 12 68 -5 31 -3 47 4 47 6 0 11 9 11 20 0 11 7 20 15 20 8 0 15 -8 15
-19 0 -10 -7 -24 -15 -31 -15 -13 -21 -70 -7 -70 8 1 52 90 52 106 0 7 10 18
23 27 20 14 47 57 61 101 4 10 12 16 21 13 9 -4 12 -1 8 9 -3 7 -1 14 5 14 6
0 20 16 33 36 12 20 33 48 46 62 13 14 33 45 45 68 l21 44 451 3 c248 1 -300
3 -1219 4 -918 2 -1675 -1 -1680 -5z m2392 -54 c-3 -8 -6 -5 -6 6 -1 11 2 17
5 13 3 -3 4 -12 1 -19z m-7 -31 c0 -7 -11 -14 -25 -15 -31 -2 -33 15 -2 21 12
2 23 5 25 6 1 0 2 -5 2 -12z m-1410 -7 c0 -5 -2 -10 -4 -10 -3 0 -8 5 -11 10
-3 6 -1 10 4 10 6 0 11 -4 11 -10z m47 -12 c-3 -8 -6 -5 -6 6 -1 11 2 17 5 13
3 -3 4 -12 1 -19z m1300 -38 c-5 -44 -17 -49 -17 -7 0 21 4 37 10 37 5 0 8
-14 7 -30z m-1248 -59 c8 -5 9 -11 3 -15 -5 -3 -15 1 -22 9 -14 16 -3 20 19 6z
m108 -143 c-3 -8 -6 -5 -6 6 -1 11 2 17 5 13 3 -3 4 -12 1 -19z m923 2 c0 -13
-7 -20 -20 -20 -13 0 -20 7 -20 20 0 13 7 20 20 20 13 0 20 -7 20 -20z m-840
-59 c0 -11 -4 -23 -10 -26 -5 -3 -10 -16 -10 -28 0 -20 0 -20 -14 -2 -11 16
-11 21 0 33 8 7 14 20 14 28 0 8 5 14 10 14 6 0 10 -9 10 -19z m80 -87 c0 -13
-30 -34 -49 -34 -14 0 -19 6 -18 20 1 16 8 20 34 20 18 0 33 -3 33 -6z m750 2
c0 -2 -7 -6 -15 -10 -8 -3 -15 -1 -15 4 0 6 7 10 15 10 8 0 15 -2 15 -4z
m-670 -126 c0 -52 -12 -64 -30 -31 -13 26 -13 49 3 66 21 24 27 17 27 -35z
m493 -85 c-7 -21 -13 -19 -13 6 0 11 4 18 10 14 5 -3 7 -12 3 -20z m-465 -57
c-6 -18 -28 -21 -28 -4 0 9 7 16 16 16 9 0 14 -5 12 -12z m32 -33 c0 -8 -7
-15 -15 -15 -16 0 -20 12 -8 23 11 12 23 8 23 -8z m60 -25 c0 -5 -6 -10 -14
-10 -8 0 -18 5 -21 10 -3 6 3 10 14 10 12 0 21 -4 21 -10z m320 6 c0 -11 -19
-15 -25 -6 -3 5 1 10 9 10 9 0 16 -2 16 -4z m-35 -66 c-4 -12 -18 -25 -31 -30
-13 -5 -29 -21 -34 -35 -13 -33 -20 -32 -20 5 0 20 5 30 15 30 8 0 15 5 15 10
0 6 6 10 13 10 7 0 18 9 25 21 16 25 26 19 17 -11z m-248 -32 c-3 -8 -6 -5 -6
6 -1 11 2 17 5 13 3 -3 4 -12 1 -19z m157 -103 c-6 -21 -52 -61 -60 -52 -4 4
57 74 63 72 1 -1 0 -10 -3 -20z m-109 5 c3 -6 -1 -7 -9 -4 -18 7 -21 14 -7 14
6 0 13 -4 16 -10z m3545 -912 c-184 -4 -347 -7 -362 -5 -19 2 -28 -1 -28 -11
0 -12 -3 -12 -15 -2 -8 7 -26 10 -39 8 -15 -3 -27 0 -30 8 -4 12 63 14 402 12
l407 -1 -335 -9z m-390 -78 c0 -5 7 -10 15 -10 8 0 15 -4 15 -10 0 -15 -19
-12 -36 4 -16 17 -18 26 -4 26 6 0 10 -4 10 -10z m60 -65 c0 -16 -6 -25 -15
-25 -16 0 -19 9 -9 34 9 25 24 19 24 -9z m60 -48 c0 -14 5 -18 20 -14 16 4 20
0 20 -19 0 -31 -20 -31 -50 1 -12 13 -27 22 -31 19 -5 -3 -9 3 -9 13 0 14 7
19 25 19 18 0 25 -5 25 -19z m837 -114 c-3 -10 -5 -2 -5 17 0 19 2 27 5 18 2
-10 2 -26 0 -35z m23 -62 c0 -6 -4 -13 -10 -16 -5 -3 -10 1 -10 9 0 9 5 16 10
16 6 0 10 -4 10 -9z m-74 -56 c11 -10 13 -25 9 -45 -8 -38 -23 -39 -17 -1 2
16 -1 32 -7 35 -11 7 -15 26 -5 26 3 0 12 -7 20 -15z m-77 -158 c-9 -7 -18
-19 -22 -27 -5 -13 -6 -13 -6 1 -1 17 18 39 34 39 5 0 3 -6 -6 -13z m-259
-237 c18 -11 7 -23 -24 -25 -20 0 -22 2 -12 17 12 21 15 21 36 8z m-10 -60 c0
-5 -4 -10 -10 -10 -5 0 -10 5 -10 10 0 6 5 10 10 10 6 0 10 -4 10 -10z m-2396
-206 c9 -22 8 -24 -11 -24 -15 0 -16 -2 -3 -10 13 -8 12 -10 -2 -10 -10 0 -18
6 -18 14 0 21 11 46 20 46 4 0 11 -7 14 -16z m126 -169 c0 -8 -4 -15 -10 -15
-5 0 -10 7 -10 15 0 8 5 15 10 15 6 0 10 -7 10 -15z m38 -50 c-3 -3 -9 2 -12
12 -6 14 -5 15 5 6 7 -7 10 -15 7 -18z m-648 -375 c0 -5 -5 -10 -11 -10 -5 0
-7 5 -4 10 3 6 8 10 11 10 2 0 4 -4 4 -10z m-1573 -6 c-3 -3 -12 -4 -19 -1 -8
3 -5 6 6 6 11 1 17 -2 13 -5z m2473 -23 c0 -11 -4 -23 -10 -26 -6 -4 -10 5
-10 19 0 14 5 26 10 26 6 0 10 -9 10 -19z m67 -56 c8 -9 12 -19 8 -23 -4 -4
-10 -1 -12 6 -3 6 -16 12 -29 12 -14 0 -22 4 -19 10 9 15 34 12 52 -5z m-1050
-47 c-3 -8 -6 -5 -6 6 -1 11 2 17 5 13 3 -3 4 -12 1 -19z m-21 -35 c-10 -10
-19 5 -10 18 6 11 8 11 12 0 2 -7 1 -15 -2 -18z m334 7 c0 -6 -59 -10 -156
-10 -101 0 -153 3 -149 10 4 6 67 10 156 10 93 0 149 -4 149 -10z m750 0 c0
-5 -20 -10 -45 -10 -25 0 -45 5 -45 10 0 6 20 10 45 10 25 0 45 -4 45 -10z
m-217 -37 c-156 -2 -410 -2 -565 0 -156 1 -29 2 282 2 311 0 438 -1 283 -2z
m-5960 -40 c5 -7 -338 -7 -733 0 -85 1 44 4 287 5 243 1 444 -1 446 -5z m-886
-150 c-2 -27 -3 -5 -3 47 0 52 1 74 3 48 2 -27 2 -69 0 -95z m-29 -71 c6 -18
-15 -14 -22 4 -4 10 -1 14 6 12 6 -2 14 -10 16 -16z m32 -68 c0 -8 -4 -12 -10
-9 -5 3 -10 10 -10 16 0 5 5 9 10 9 6 0 10 -7 10 -16z m2957 -426 c-3 -7 -5
-2 -5 12 0 14 2 19 5 13 2 -7 2 -19 0 -25z m-77 -88 c0 -5 -8 -10 -17 -10 -15
0 -16 2 -3 10 19 12 20 12 20 0z m2333 -100 c-3 -12 -8 -19 -11 -16 -5 6 5 36
12 36 2 0 2 -9 -1 -20z m-2417 -47 c-11 -11 -19 6 -11 24 8 17 8 17 12 0 3
-10 2 -21 -1 -24z m-36 -23 c-8 -5 -22 -9 -30 -9 -10 0 -8 3 5 9 27 12 43 12
25 0z m-43 -52 c-3 -8 -6 -5 -6 6 -1 11 2 17 5 13 3 -3 4 -12 1 -19z m2343
-32 c0 -3 -4 -8 -10 -11 -5 -3 -10 -1 -10 4 0 6 5 11 10 11 6 0 10 -2 10 -4z
m-80 -80 c0 -3 -4 -8 -10 -11 -5 -3 -10 -1 -10 4 0 6 5 11 10 11 6 0 10 -2 10
-4z m50 -24 c0 -4 -9 -13 -20 -20 -16 -10 -20 -10 -20 1 0 8 3 17 7 20 9 9 33
9 33 -1z m-102 -152 c-7 -11 -16 -20 -20 -20 -5 0 -3 9 4 20 7 11 16 20 20 20
5 0 3 -9 -4 -20z m-178 -250 c0 -5 -5 -10 -11 -10 -5 0 -7 5 -4 10 3 6 8 10
11 10 2 0 4 -4 4 -10z m-25 -50 c-3 -5 -12 -10 -18 -10 -7 0 -6 4 3 10 19 12
23 12 15 0z m-38 -15 c8 -9 13 -19 9 -22 -7 -7 -36 16 -36 28 0 13 10 11 27
-6z m-37 -80 c-10 -12 -16 -13 -28 -3 -13 11 -11 13 9 19 30 7 35 3 19 -16z
m-53 -45 c-3 -11 -1 -20 5 -20 5 0 6 -5 2 -12 -6 -9 -9 -9 -12 0 -2 7 -10 12
-18 12 -8 0 -14 9 -14 20 0 14 7 20 21 20 16 0 20 -5 16 -20z m-51 -53 c4 -4
-26 -8 -67 -9 l-74 -2 75 -6 75 -6 -82 -2 c-80 -2 -94 3 -73 24 11 11 135 12
146 1z m-1228 -64 c-82 -2 -214 -2 -295 0 -82 1 -15 3 147 3 162 0 229 -2 148
-3z m1060 0 c-27 -2 -69 -2 -95 0 -27 2 -5 3 47 3 52 0 74 -1 48 -3z m-2318
-23 c0 -5 -8 -14 -17 -19 -10 -6 -15 -11 -10 -11 4 0 -2 -9 -13 -20 -11 -11
-20 -31 -20 -45 0 -15 -6 -25 -15 -25 -8 0 -22 -11 -31 -25 -9 -14 -20 -22
-25 -19 -5 3 -9 -5 -9 -18 0 -13 -9 -34 -20 -48 -11 -14 -20 -31 -20 -37 0 -7
-6 -13 -12 -13 -7 0 -22 -15 -33 -32 -11 -18 -29 -47 -40 -65 -11 -18 -27 -40
-35 -50 -9 -10 -30 -43 -49 -73 -18 -30 -37 -57 -42 -60 -14 -9 -69 -94 -69
-107 0 -19 -14 -16 -28 7 -7 11 -21 20 -32 20 -11 0 -20 6 -21 13 -3 55 -32
106 -61 107 -14 0 -18 9 -18 40 0 36 -2 40 -25 40 -22 0 -25 4 -25 40 0 36 -2
40 -25 40 -22 0 -25 4 -25 40 0 38 -2 40 -30 40 -28 0 -30 2 -30 40 0 28 -4
40 -15 40 -18 0 -65 47 -65 65 0 9 -10 15 -25 15 -22 0 -25 4 -25 39 0 35 -3
39 -20 36 -11 -2 -18 0 -15 6 4 5 187 10 458 11 l452 3 -460 5 c-253 3 -461 7
-462 8 -22 20 40 22 477 22 276 -1 480 -5 480 -10z m-2077 -27 c-7 -2 -19 -2
-25 0 -7 3 -2 5 12 5 14 0 19 -2 13 -5z m1040 -20 c-23 -2 -64 -2 -90 0 -26 2
-7 3 42 3 50 0 71 -1 48 -3z m-1026 -1425 c-1 -178 -2 -35 -2 317 0 352 1 497
2 323 2 -174 2 -462 0 -640z m1455 620 c-7 -7 -12 -8 -12 -2 0 14 12 26 19 19
2 -3 -1 -11 -7 -17z m-164 -166 c-55 -69 -83 -79 -91 -29 -6 44 4 53 58 49 41
-4 44 -6 33 -20z m-38 -107 c-7 -9 -15 -13 -17 -11 -7 7 7 26 19 26 6 0 6 -6
-2 -15z m-170 -238 c0 -8 -3 -17 -7 -20 -9 -9 -34 13 -27 24 8 14 34 11 34 -4z
m-90 -147 c0 -5 -5 -10 -11 -10 -5 0 -7 5 -4 10 3 6 8 10 11 10 2 0 4 -4 4
-10z m-97 -139 c-3 -12 -11 -17 -19 -14 -19 7 -18 21 4 26 9 3 18 5 19 6 0 0
-1 -8 -4 -18z m-67 -34 c21 -12 17 -37 -6 -37 -17 0 -20 6 -19 43 1 23 4 33 6
22 3 -11 11 -24 19 -28z m-877 -162 c0 -5 -4 -3 -9 5 -5 8 -9 22 -9 30 0 16
17 -16 18 -35z m42 35 c9 12 10 11 4 -5 -3 -11 -8 -31 -9 -45 -2 -14 -1 -19 1
-11 4 12 6 12 14 0 8 -12 11 -12 19 1 5 8 10 27 10 43 0 17 5 27 15 27 10 0
15 -10 15 -30 0 -29 13 -40 25 -20 4 6 68 10 161 10 147 0 154 -1 154 -20 0
-18 7 -20 80 -20 73 0 80 2 80 20 0 18 7 20 75 20 68 0 75 2 75 20 0 11 7 20
15 20 12 0 13 -4 5 -19 -13 -26 -13 -58 1 -63 11 -4 -3 -41 -21 -58 -3 -3 -44
-61 -90 -130 -46 -69 -95 -135 -107 -148 -13 -13 -23 -27 -23 -32 0 -4 -20
-33 -45 -63 -25 -31 -45 -60 -45 -65 0 -5 -9 -17 -20 -27 -11 -10 -20 -24 -20
-32 0 -23 -16 -7 -71 75 -29 42 -55 79 -59 82 -3 3 -17 21 -30 40 -13 19 -27
37 -30 40 -3 3 -14 21 -24 40 -11 19 -30 45 -43 57 -13 12 -23 29 -23 38 0 9
-6 18 -14 21 -8 3 -17 13 -20 22 -3 9 -26 46 -51 81 -31 43 -42 67 -34 71 7 5
9 20 4 41 -5 25 -4 30 4 19 10 -13 12 -13 22 0z m769 -20 c0 -5 -5 -10 -11
-10 -5 0 -7 5 -4 10 3 6 8 10 11 10 2 0 4 -4 4 -10z m1420 -1500 c0 -5 -4 -10
-10 -10 -5 0 -10 5 -10 10 0 6 5 10 10 10 6 0 10 -4 10 -10z m-1063 -132 c-3
-7 -5 -2 -5 12 0 14 2 19 5 13 2 -7 2 -19 0 -25z m983 21 c0 -13 -29 -43 -36
-36 -7 6 18 47 28 47 5 0 8 -5 8 -11z m-860 -235 c0 -8 -5 -12 -10 -9 -6 4 -8
11 -5 16 9 14 15 11 15 -7z m25 -52 c-8 -8 -25 10 -19 20 4 6 9 5 15 -3 4 -7
6 -15 4 -17z m538 1 c-24 -2 -62 -2 -85 0 -24 2 -5 4 42 4 47 0 66 -2 43 -4z
m62 -23 c-3 -5 -46 -10 -96 -10 -53 0 -89 4 -89 10 0 6 39 10 96 10 61 0 93
-4 89 -10z m-82 -27 c-35 -2 -91 -2 -125 0 -35 2 -7 3 62 3 69 0 97 -1 63 -3z"/>
<path d="M1841 26284 c0 -11 3 -14 6 -6 3 7 2 16 -1 19 -3 4 -6 -2 -5 -13z"/>
<path d="M1725 26120 c3 -5 13 -10 21 -10 8 0 14 5 14 10 0 6 -9 10 -21 10
-11 0 -17 -4 -14 -10z"/>
<path d="M1290 25630 c0 -11 7 -20 15 -20 8 0 15 6 15 14 0 8 -7 16 -15 20
-10 4 -15 -1 -15 -14z"/>
<path d="M3 31770 c0 -25 2 -35 4 -22 2 12 2 32 0 45 -2 12 -4 2 -4 -23z"/>
<path d="M7830 31211 c0 -5 5 -13 10 -16 6 -3 10 -2 10 4 0 5 -4 13 -10 16 -5
3 -10 2 -10 -4z"/>
<path d="M7800 31168 c0 -9 -10 -24 -22 -32 -25 -18 -16 -36 9 -20 28 18 39
42 25 56 -9 9 -12 9 -12 -4z"/>
<path d="M7855 31170 c3 -5 8 -10 11 -10 2 0 4 5 4 10 0 6 -5 10 -11 10 -5 0
-7 -4 -4 -10z"/>
<path d="M8002 30910 c0 -14 2 -19 5 -12 2 6 2 18 0 25 -3 6 -5 1 -5 -13z"/>
<path d="M3 30570 c0 -25 2 -35 4 -22 2 12 2 32 0 45 -2 12 -4 2 -4 -23z"/>
<path d="M298 30473 c122 -2 322 -2 445 0 122 1 22 2 -223 2 -245 0 -345 -1
-222 -2z"/>
<path d="M1660 29444 c0 -8 -3 -13 -7 -11 -5 3 -14 -1 -21 -9 -7 -8 -9 -14 -5
-14 4 0 1 -6 -7 -13 -18 -14 -100 -132 -100 -143 0 -4 11 3 25 16 14 13 25 19
25 13 0 -6 -5 -13 -11 -15 -17 -6 2 -38 22 -38 14 0 19 -7 19 -29 0 -34 -23
-47 -45 -25 -18 19 -19 30 -2 38 9 5 9 7 -1 12 -6 3 -10 10 -6 15 3 5 1 9 -3
9 -16 0 -33 -23 -33 -44 -1 -20 -1 -20 -11 -3 -10 18 -11 18 -25 0 -18 -24
-18 -36 2 -29 8 3 12 2 9 -4 -3 -6 -14 -10 -23 -10 -19 0 -55 -56 -47 -71 4
-5 0 -6 -8 -3 -19 7 -32 -43 -16 -62 9 -10 9 -14 0 -14 -6 0 -14 7 -18 16 -6
15 -8 15 -20 -2 -7 -10 -13 -23 -13 -28 0 -7 3 -6 8 1 4 6 8 -6 8 -27 1 -22
-2 -37 -6 -35 -4 3 -10 -4 -13 -15 -3 -11 -11 -20 -17 -20 -9 0 -9 4 1 16 12
15 11 16 -11 10 l-25 -8 23 17 c12 9 22 24 22 33 -1 12 -7 9 -23 -13 -23 -30
-24 -33 -26 -62 -1 -15 -3 -16 -10 -4 -8 12 -12 10 -22 -12 -7 -15 -16 -27
-21 -27 -4 0 -8 -5 -8 -10 0 -6 -5 -16 -10 -23 -53 -64 -99 -139 -94 -154 5
-14 4 -15 -4 -4 -8 11 -12 10 -21 -8 -7 -12 -9 -25 -6 -30 3 -5 -4 -12 -15
-16 -37 -12 -20 -38 18 -28 22 5 26 31 7 45 -5 4 -6 10 -1 15 4 4 12 0 17 -10
9 -15 32 -17 248 -17 230 0 239 1 244 20 5 19 14 20 121 20 109 0 116 1 116
20 0 17 7 20 40 20 l40 0 0 40 0 40 80 0 80 0 -6 43 c-4 30 -3 38 5 27 5 -8
13 -12 16 -8 9 9 -17 48 -32 48 -7 0 -13 11 -13 25 0 14 -4 25 -8 25 -5 0 -17
18 -28 40 -10 22 -25 40 -31 40 -7 0 -13 4 -13 10 0 5 -11 12 -25 16 -15 4
-25 13 -25 25 0 18 -30 76 -62 118 -14 18 -18 20 -18 7 0 -23 -14 -20 -25 7
-6 12 -20 26 -32 32 -13 5 -23 13 -23 17 0 16 34 7 57 -14 35 -33 30 2 -6 41
-33 35 -41 38 -41 15 0 -8 -4 -12 -10 -9 -5 3 -10 15 -10 26 0 11 5 17 10 14
6 -3 10 -1 10 5 0 7 -8 9 -20 5 -11 -3 -28 -2 -37 4 -17 9 -17 10 0 16 21 9
23 34 2 41 -8 3 -20 21 -27 40 -13 35 -28 45 -28 18z m40 -79 c0 -8 -4 -17
-10 -20 -6 -4 -10 5 -10 20 0 15 4 24 10 20 6 -3 10 -12 10 -20z m-37 0 c1 -5
-6 -11 -15 -13 -11 -2 -18 3 -18 13 0 17 30 18 33 0z m-215 -391 c-3 -14 -5
-12 -10 9 -3 19 -2 25 4 19 6 -6 8 -18 6 -28z m524 -8 c24 -25 44 -51 46 -57
2 -7 12 -20 22 -29 20 -17 17 -30 -7 -30 -7 0 -13 6 -13 13 -1 19 -66 87 -84
87 -11 0 -16 9 -16 30 0 17 2 30 5 30 3 0 24 -20 47 -44z m-541 -31 c5 4 9 -5
9 -19 0 -19 -5 -26 -20 -26 -13 0 -20 -7 -20 -20 0 -13 -7 -20 -20 -20 -13 0
-20 7 -20 20 0 13 7 20 20 20 15 0 20 7 20 29 0 16 3 38 8 48 6 15 8 13 10
-10 2 -15 8 -25 13 -22z m-161 -95 c0 -21 -15 -27 -25 -10 -7 12 2 30 16 30 5
0 9 -9 9 -20z m-55 -60 c3 -5 1 -10 -4 -10 -6 0 -11 5 -11 10 0 6 2 10 4 10 3
0 8 -4 11 -10z m64 -39 c2 -56 -18 -75 -43 -39 -14 19 -13 23 7 41 15 13 18
21 9 24 -15 6 -6 23 12 23 8 0 13 -17 15 -49z m-83 -18 c-10 -10 -19 5 -10 18
6 11 8 11 12 0 2 -7 1 -15 -2 -18z"/>
<path d="M1500 29239 c0 -5 5 -7 10 -4 6 3 10 8 10 11 0 2 -4 4 -10 4 -5 0
-10 -5 -10 -11z"/>
<path d="M2100 28796 c0 -17 5 -26 16 -26 10 0 14 7 12 22 -5 32 -28 35 -28 4z"/>
<path d="M2162 28707 c1 -28 6 -37 20 -37 24 0 23 16 -2 48 l-21 26 3 -37z"/>
<path d="M2160 28630 c0 -24 15 -27 24 -4 9 22 8 24 -9 24 -8 0 -15 -9 -15
-20z"/>
<path d="M2217 28633 c-12 -11 -7 -23 9 -23 10 0 14 -6 10 -15 -3 -9 0 -15 9
-15 18 0 18 2 3 35 -11 25 -19 30 -31 18z"/>
<path d="M1608 28605 c-3 -3 -114 -6 -247 -5 -142 0 -241 -3 -241 -9 0 -11
462 -18 765 -11 l220 5 -205 7 c-113 5 -223 11 -245 14 -22 3 -43 3 -47 -1z"/>
<path d="M2373 26958 c-15 -16 -20 -31 -16 -46 6 -24 27 -25 29 -1 0 8 4 22 8
31 14 31 1 40 -21 16z"/>
<path d="M2303 26865 c-3 -9 -3 -18 -1 -21 9 -9 38 8 38 22 0 19 -29 18 -37
-1z"/>
<path d="M2276 26823 c-13 -13 -6 -42 9 -37 16 7 20 30 6 38 -4 3 -11 3 -15
-1z"/>
<path d="M2235 26769 c-11 -16 -1 -19 13 -3 7 8 8 14 3 14 -5 0 -13 -5 -16
-11z"/>
<path d="M2211 26724 c0 -11 3 -14 6 -6 3 7 2 16 -1 19 -3 4 -6 -2 -5 -13z"/>
<path d="M2100 23110 c0 -11 -4 -20 -10 -20 -5 0 -10 -12 -10 -27 l1 -28 15
28 c8 15 19 27 24 27 6 0 10 9 10 20 0 11 -7 20 -15 20 -8 0 -15 -9 -15 -20z"/>
<path d="M1426 22794 c-8 -21 -8 -21 7 -27 10 -4 13 2 9 19 -5 28 -8 30 -16 8z"/>
<path d="M1767 22616 c-4 -10 -1 -13 9 -9 15 6 19 23 5 23 -5 0 -11 -7 -14
-14z"/>
<path d="M1560 22600 c0 -5 5 -10 11 -10 5 0 7 5 4 10 -3 6 -8 10 -11 10 -2 0
-4 -4 -4 -10z"/>
<path d="M1680 22600 c0 -5 7 -7 15 -4 8 4 15 8 15 10 0 2 -7 4 -15 4 -8 0
-15 -4 -15 -10z"/>
<path d="M1700 22540 c0 -5 5 -10 11 -10 5 0 7 5 4 10 -3 6 -8 10 -11 10 -2 0
-4 -4 -4 -10z"/>
<path d="M1637 22515 c-4 -8 -2 -17 3 -20 6 -4 10 3 10 14 0 25 -6 27 -13 6z"/>
<path d="M114 20953 c127 -4 132 -6 161 -63 9 -19 27 -44 40 -55 12 -11 29
-33 38 -50 8 -16 26 -41 39 -55 12 -13 23 -29 23 -34 0 -5 6 -11 13 -13 6 -3
12 0 12 6 0 12 57 99 93 142 30 35 46 59 60 91 l11 28 661 3 c385 1 258 2
-305 2 -531 1 -912 -1 -846 -2z"/>
<path d="M5 20505 c0 -236 1 -332 2 -212 2 120 2 314 0 430 -1 117 -2 19 -2
-218z"/>
<path d="M618 17143 c342 -2 902 -2 1245 0 342 1 62 2 -623 2 -685 0 -965 -1
-622 -2z"/>
<path d="M2738 17143 c12 -2 32 -2 45 0 12 2 2 4 -23 4 -25 0 -35 -2 -22 -4z"/>
<path d="M2843 17143 c9 -2 25 -2 35 0 9 3 1 5 -18 5 -19 0 -27 -2 -17 -5z"/>
<path d="M3503 17143 c329 -2 865 -2 1190 0 326 1 57 2 -598 2 -655 0 -921 -1
-592 -2z"/>
<path d="M5308 17143 c12 -2 32 -2 45 0 12 2 2 4 -23 4 -25 0 -35 -2 -22 -4z"/>
<path d="M5498 17143 c34 -2 90 -2 125 0 34 2 6 3 -63 3 -69 0 -97 -1 -62 -3z"/>
<path d="M6638 17143 c89 -2 235 -2 325 0 89 1 16 3 -163 3 -179 0 -252 -2
-162 -3z"/>
<path d="M7498 17143 c34 -2 90 -2 125 0 34 2 6 3 -63 3 -69 0 -97 -1 -62 -3z"/>
<path d="M240 13340 c0 -5 5 -10 11 -10 5 0 7 5 4 10 -3 6 -8 10 -11 10 -2 0
-4 -4 -4 -10z"/>
<path d="M288 13333 c7 -3 16 -2 19 1 4 3 -2 6 -13 5 -11 0 -14 -3 -6 -6z"/>
<path d="M383 13333 c37 -2 97 -2 135 0 37 2 6 3 -68 3 -74 0 -105 -1 -67 -3z"/>
<path d="M598 13333 c7 -3 16 -2 19 1 4 3 -2 6 -13 5 -11 0 -14 -3 -6 -6z"/>
<path d="M1 10490 c1 -520 5 -956 9 -970 6 -22 8 -23 15 -6 5 11 3 21 -3 25
-14 9 -15 1118 -1 1127 5 3 13 -6 19 -21 5 -14 17 -28 25 -31 8 -4 15 -11 15
-17 0 -5 11 -24 24 -41 13 -17 26 -41 30 -53 4 -13 12 -23 17 -23 5 0 9 -5 9
-11 0 -9 46 -73 77 -107 7 -7 20 -26 30 -42 9 -17 21 -30 25 -30 4 0 8 -6 8
-13 0 -8 9 -22 20 -32 11 -10 33 -41 49 -69 51 -87 47 -85 76 -52 14 16 25 33
25 37 0 4 6 14 14 21 7 8 20 27 29 43 8 17 24 39 35 51 11 11 32 40 47 65 16
24 31 46 35 49 3 3 17 23 30 45 13 22 27 42 30 45 4 3 25 33 49 68 23 34 46
62 51 62 6 0 10 5 10 12 0 6 11 26 25 44 14 18 25 35 25 38 0 6 70 104 106
151 8 11 27 39 41 63 14 23 29 42 34 42 5 0 9 5 9 10 0 6 4 16 10 23 26 32 82
110 106 149 15 24 30 45 33 48 4 3 35 48 70 100 104 154 62 139 403 142 161 2
-147 3 -685 3 l-977 0 1 -945z"/>
<path d="M1528 7623 c844 -2 2221 -2 3060 0 840 1 150 2 -1533 2 -1683 0
-2370 -1 -1527 -2z"/>
<path d="M10 60 l0 -50 35 0 c19 0 35 3 35 6 0 7 -62 94 -67 94 -2 0 -3 -22
-3 -50z"/>
</g>
</svg>
